<?xml version="1.0" encoding="UTF-8" standalone="no"?>
<svg
   xmlns:dc="http://purl.org/dc/elements/1.1/"
   xmlns:cc="http://creativecommons.org/ns#"
   xmlns:rdf="http://www.w3.org/1999/02/22-rdf-syntax-ns#"
   xmlns:svg="http://www.w3.org/2000/svg"
   xmlns="http://www.w3.org/2000/svg"
   xmlns:sodipodi="http://sodipodi.sourceforge.net/DTD/sodipodi-0.dtd"
   xmlns:inkscape="http://www.inkscape.org/namespaces/inkscape"
   width="300"
   height="60"
   viewBox="0 0 79.374998 15.875"
   version="1.1"
   id="svg8"
   inkscape:version="1.0.2 (e86c870879, 2021-01-15, custom)"
   sodipodi:docname="opyndata-logo.svg">
  <defs
     id="defs2" />
  <sodipodi:namedview
     id="base"
     pagecolor="#ffffff"
     bordercolor="#666666"
     borderopacity="1.0"
     inkscape:pageopacity="0.0"
     inkscape:pageshadow="2"
     inkscape:zoom="1.1437717"
     inkscape:cx="-85.62874"
     inkscape:cy="-55.618084"
     inkscape:document-units="mm"
     inkscape:current-layer="layer1"
     inkscape:document-rotation="0"
     showgrid="false"
     fit-margin-top="0"
     fit-margin-left="0"
     fit-margin-right="0"
     fit-margin-bottom="0"
     inkscape:window-width="1920"
     inkscape:window-height="1017"
     inkscape:window-x="-8"
     inkscape:window-y="-8"
     inkscape:window-maximized="1"
     units="px" />
  <metadata
     id="metadata5">
    <rdf:RDF>
      <cc:Work
         rdf:about="">
        <dc:format>image/svg+xml</dc:format>
        <dc:type
           rdf:resource="http://purl.org/dc/dcmitype/StillImage" />
        <dc:title></dc:title>
      </cc:Work>
    </rdf:RDF>
  </metadata>
  <g
     inkscape:label="Layer 1"
     inkscape:groupmode="layer"
     id="layer1"
     transform="translate(-16.496315,-39.486296)">
    <g
       id="g914"
       transform="matrix(5.2739654,0,0,5.2739654,-69.733418,-167.70421)"
       style="stroke-width:0.189611">
      <g
         aria-label="   py"
         id="text835"
         style="font-size:2.82223px;line-height:1.25;font-family:Charter;-inkscape-font-specification:Charter;fill:#37c8ab;fill-opacity:1;stroke-width:0.0501678">
        <path
           d="m 18.914965,42.156559 v -0.1016 l 0.152401,-0.01411 0.04798,-0.04516 v -1.636893 h -0.200378 v -0.08749 l 0.327379,-0.101601 h 0.107245 v 0.155223 q 0.225778,-0.169334 0.414867,-0.169334 0.155223,0 0.276579,0.08467 0.124178,0.08185 0.194734,0.231423 0.07056,0.146756 0.07056,0.344312 0,0.222956 -0.08749,0.389468 -0.08467,0.163689 -0.242711,0.254 -0.155223,0.09031 -0.364068,0.09031 -0.104423,0 -0.262467,-0.0254 v 0.471312 l 0.04798,0.04516 0.180623,0.01411 v 0.1016 z m 0.434624,-0.778935 q 0.135467,0.04516 0.239889,0.04516 0.208845,0 0.338668,-0.155223 0.129822,-0.155223 0.129822,-0.414868 0,-0.242712 -0.115711,-0.381001 -0.112889,-0.138289 -0.296334,-0.138289 -0.07056,0 -0.143934,0.0254 -0.07056,0.02258 -0.1524,0.07056 z"
           style="font-style:normal;font-variant:normal;font-weight:normal;font-stretch:normal;font-family:Charter;-inkscape-font-specification:Charter;fill:#37c8ab;fill-opacity:1;stroke-width:0.0501678"
           id="path916" />
        <path
           d="m 20.399454,40.18382 h 0.612424 v 0.104423 l -0.149578,0.01129 -0.03387,0.04516 0.338668,0.877713 0.352779,-0.877713 -0.02258,-0.04516 -0.1524,-0.01129 V 40.18382 h 0.502356 v 0.104423 l -0.163689,0.02258 -0.564446,1.371604 q -0.09878,0.239889 -0.206023,0.355601 -0.107244,0.118533 -0.245534,0.118533 -0.08749,0 -0.141111,-0.04516 -0.05362,-0.04233 -0.05362,-0.11289 0,-0.08467 0.07338,-0.1524 l 0.270935,0.107245 q 0.05644,-0.06209 0.115711,-0.169334 0.05927,-0.104423 0.112889,-0.254001 l -0.474135,-1.224848 -0.172156,-0.01693 z"
           style="font-style:normal;font-variant:normal;font-weight:normal;font-stretch:normal;font-family:Charter;-inkscape-font-specification:Charter;fill:#37c8ab;fill-opacity:1;stroke-width:0.0501678"
           id="path918" />
      </g>
      <g
         aria-label="O    NDATA"
         id="text874"
         style="font-size:2.82223px;line-height:1.25;font-family:Charter;-inkscape-font-specification:Charter;fill:#006680;fill-opacity:1;stroke-width:0.0501678">
        <path
           d="m 17.827105,39.486296 q 0.364068,0 0.620891,0.248356 0.29069,0.282223 0.29069,0.745069 0,0.313267 -0.143934,0.558801 -0.118534,0.203201 -0.321734,0.318912 -0.200379,0.115712 -0.445913,0.115712 -0.369712,0 -0.62089,-0.242712 -0.29069,-0.282223 -0.29069,-0.750713 0,-0.465668 0.287867,-0.745069 0.256823,-0.248356 0.623713,-0.248356 z m 0,0.1524 q -0.183445,0 -0.324556,0.1016 -0.138289,0.09878 -0.217312,0.287868 -0.0762,0.186267 -0.0762,0.451557 0,0.262467 0.0762,0.451556 0.07902,0.18909 0.217312,0.29069 0.141111,0.1016 0.324556,0.1016 0.183445,0 0.321735,-0.1016 0.138289,-0.1016 0.214489,-0.29069 0.07902,-0.189089 0.07902,-0.451556 0,-0.262468 -0.07902,-0.448735 -0.0762,-0.189089 -0.214489,-0.29069 -0.13829,-0.1016 -0.321735,-0.1016 z"
           style="font-style:normal;font-variant:normal;font-weight:normal;font-stretch:normal;font-family:Charter;-inkscape-font-specification:Charter;fill:#006680;fill-opacity:1;stroke-width:0.0501678"
           id="path921" />
        <path
           d="m 22.080202,41.42799 v -0.115711 l 0.172156,-0.02258 0.0508,-0.05362 v -1.532471 l -0.0508,-0.03951 -0.180623,-0.01693 v -0.112889 h 0.53058 v 0.07055 l 0.96238,1.444982 v -1.326448 l -0.0508,-0.0508 -0.169334,-0.0254 v -0.112889 h 0.592668 v 0.112889 l -0.169333,0.0254 -0.0508,0.0508 V 41.42799 H 23.530829 L 22.45556,39.824963 v 1.411115 l 0.0508,0.05362 0.169334,0.02258 v 0.115711 z"
           style="font-style:normal;font-variant:normal;font-weight:normal;font-stretch:normal;font-family:Charter;-inkscape-font-specification:Charter;fill:#006680;fill-opacity:1;stroke-width:0.0501678"
           id="path923" />
        <path
           d="m 24.798008,39.534274 q 0.502357,0 0.770469,0.251178 0.270934,0.248356 0.270934,0.694269 0,0.505179 -0.352779,0.773291 -0.143934,0.107244 -0.310445,0.141111 -0.166512,0.03387 -0.378179,0.03387 h -0.697091 v -0.115711 l 0.160867,-0.01411 0.04798,-0.03951 v -1.555049 l -0.04798,-0.03951 -0.160867,-0.01693 v -0.112889 z m -0.234245,0.129822 v 1.634071 h 0.222956 q 0.767647,0 0.767647,-0.818446 0,-0.412046 -0.191912,-0.612424 -0.189089,-0.203201 -0.575735,-0.203201 z"
           style="font-style:normal;font-variant:normal;font-weight:normal;font-stretch:normal;font-family:Charter;-inkscape-font-specification:Charter;fill:#006680;fill-opacity:1;stroke-width:0.0501678"
           id="path925" />
        <path
           d="m 26.714296,39.511696 h 0.186267 l 0.677335,1.766716 0.169334,0.03387 v 0.115711 h -0.640646 v -0.115711 l 0.174978,-0.01411 0.01976,-0.03951 -0.203201,-0.539046 h -0.666046 l -0.200378,0.539046 0.02822,0.03951 0.183445,0.01411 v 0.115711 h -0.553157 v -0.115711 l 0.163689,-0.03387 z m 0.04516,0.296334 -0.279401,0.781758 h 0.57009 z"
           style="font-style:normal;font-variant:normal;font-weight:normal;font-stretch:normal;font-family:Charter;-inkscape-font-specification:Charter;fill:#006680;fill-opacity:1;stroke-width:0.0501678"
           id="path927" />
        <path
           d="m 27.445253,39.534274 h 1.59456 v 0.434623 h -0.155222 l -0.03951,-0.262467 -0.03951,-0.04233 h -0.434623 v 1.59456 l 0.0508,0.03951 0.189089,0.01411 v 0.115711 H 27.874235 V 41.31228 l 0.18909,-0.01411 0.0508,-0.03951 V 39.6641 h -0.434624 l -0.03951,0.04233 -0.03951,0.262467 h -0.155223 z"
           style="font-style:normal;font-variant:normal;font-weight:normal;font-stretch:normal;font-family:Charter;-inkscape-font-specification:Charter;fill:#006680;fill-opacity:1;stroke-width:0.0501678"
           id="path929" />
        <path
           d="m 29.576031,39.511696 h 0.186268 l 0.677335,1.766716 0.169334,0.03387 v 0.115711 h -0.640647 v -0.115711 l 0.174979,-0.01411 0.01975,-0.03951 -0.2032,-0.539046 h -0.666047 l -0.200378,0.539046 0.02822,0.03951 0.183445,0.01411 v 0.115708 h -0.55315 v -0.115711 l 0.16369,-0.03387 z m 0.04516,0.296334 -0.279401,0.781758 h 0.570091 z"
           style="font-style:normal;font-variant:normal;font-weight:normal;font-stretch:normal;font-family:Charter;-inkscape-font-specification:Charter;fill:#006680;fill-opacity:1;stroke-width:0.0501678"
           id="path931" />
      </g>
    </g>
  </g>
</svg>
